<svg width="120" height="32" viewBox="0 0 120 32" fill="none" xmlns="http://www.w3.org/2000/svg">
<path d="M44.5344 22.224C43.1904 22.224 41.9957 21.9701 40.9504 21.4624C39.9051 20.9397 39.0837 20.2304 38.4864 19.3344C37.904 18.4384 37.6128 17.408 37.6128 16.2432C37.6128 15.2875 37.7845 14.4288 38.128 13.6672C38.4715 12.9056 38.9419 12.2485 39.5392 11.696C40.1515 11.1435 40.8683 10.7179 41.6896 10.4192C42.5109 10.1205 43.392 9.9712 44.3328 9.9712C45.184 9.9712 45.9755 10.1131 46.7072 10.3968C47.4539 10.6805 48.1035 11.0763 48.656 11.584C49.2085 12.0917 49.6341 12.6965 49.9328 13.3984C50.2464 14.0853 50.3957 14.8469 50.3808 15.6832L50.3584 16.7584H39.4944L38.9792 14.9216H48.3648L48.0288 15.2128V14.6752C47.9691 14.1824 47.76 13.7419 47.4016 13.3536C47.0432 12.9653 46.5952 12.6592 46.0576 12.4352C45.52 12.2112 44.9451 12.0992 44.3328 12.0992C43.4368 12.0992 42.6528 12.2411 41.9808 12.5248C41.3237 12.8085 40.8085 13.2491 40.4352 13.8464C40.0768 14.4288 39.8976 15.1755 39.8976 16.0864C39.8976 16.9077 40.1067 17.6171 40.5248 18.2144C40.9429 18.8117 41.5253 19.2747 42.272 19.6032C43.0187 19.9317 43.8773 20.096 44.848 20.096C45.6843 20.096 46.4085 19.9765 47.0208 19.7376C47.6331 19.4987 48.2155 19.1701 48.768 18.752L49.8656 20.432C49.4773 20.7605 48.992 21.0667 48.4096 21.3504C47.8272 21.6192 47.2 21.8357 46.528 22C45.8709 22.1493 45.2064 22.224 44.5344 22.224ZM52.9038 26.928V10.24H55.2334V12.928L54.875 12.7264C54.9795 12.2933 55.2632 11.8752 55.7262 11.472C56.204 11.0539 56.7864 10.7104 57.4734 10.4416C58.1752 10.1728 58.907 10.0384 59.6686 10.0384C60.8782 10.0384 61.9384 10.2997 62.8494 10.8224C63.7603 11.3451 64.4771 12.0619 64.9998 12.9728C65.5224 13.8837 65.7838 14.9291 65.7838 16.1088C65.7838 17.2736 65.5224 18.3189 64.9998 19.2448C64.492 20.1557 63.7752 20.88 62.8494 21.4176C61.9384 21.9403 60.9006 22.2016 59.7358 22.2016C58.9144 22.2016 58.1379 22.0597 57.4062 21.776C56.6744 21.4773 56.0622 21.1115 55.5694 20.6784C55.0766 20.2453 54.7704 19.8123 54.651 19.3792L55.2334 19.0656V26.928H52.9038ZM59.355 20.0736C60.1763 20.0736 60.9006 19.9019 61.5278 19.5584C62.155 19.2149 62.6478 18.7445 63.0062 18.1472C63.3795 17.5499 63.5662 16.8704 63.5662 16.1088C63.5662 15.3472 63.387 14.6752 63.0286 14.0928C62.6702 13.4955 62.1774 13.0251 61.5502 12.6816C60.923 12.3381 60.1912 12.1664 59.355 12.1664C58.5336 12.1664 57.8019 12.3381 57.1598 12.6816C56.5326 13.0101 56.0323 13.4731 55.659 14.0704C55.3006 14.6677 55.1214 15.3472 55.1214 16.1088C55.1214 16.8704 55.3006 17.5499 55.659 18.1472C56.0323 18.7445 56.5326 19.2149 57.1598 19.5584C57.8019 19.9019 58.5336 20.0736 59.355 20.0736ZM69.7313 22V6.9696H72.0385V22H69.7313ZM66.7521 12.48V10.24H75.4881V12.48H66.7521ZM83.3144 22.224C81.9704 22.224 80.7757 21.9701 79.7304 21.4624C78.6851 20.9397 77.8637 20.2304 77.2664 19.3344C76.684 18.4384 76.3928 17.408 76.3928 16.2432C76.3928 15.2875 76.5645 14.4288 76.908 13.6672C77.2515 12.9056 77.7219 12.2485 78.3192 11.696C78.9315 11.1435 79.6483 10.7179 80.4696 10.4192C81.2909 10.1205 82.172 9.9712 83.1128 9.9712C83.964 9.9712 84.7555 10.1131 85.4872 10.3968C86.2339 10.6805 86.8835 11.0763 87.436 11.584C87.9885 12.0917 88.4141 12.6965 88.7128 13.3984C89.0264 14.0853 89.1757 14.8469 89.1608 15.6832L89.1384 16.7584H78.2744L77.7592 14.9216H87.1448L86.8088 15.2128V14.6752C86.7491 14.1824 86.54 13.7419 86.1816 13.3536C85.8232 12.9653 85.3752 12.6592 84.8376 12.4352C84.3 12.2112 83.7251 12.0992 83.1128 12.0992C82.2168 12.0992 81.4328 12.2411 80.7608 12.5248C80.1037 12.8085 79.5885 13.2491 79.2152 13.8464C78.8568 14.4288 78.6776 15.1755 78.6776 16.0864C78.6776 16.9077 78.8867 17.6171 79.3048 18.2144C79.7229 18.8117 80.3053 19.2747 81.052 19.6032C81.7987 19.9317 82.6573 20.096 83.628 20.096C84.4643 20.096 85.1885 19.9765 85.8008 19.7376C86.4131 19.4987 86.9955 19.1701 87.548 18.752L88.6456 20.432C88.2573 20.7605 87.772 21.0667 87.1896 21.3504C86.6072 21.6192 85.98 21.8357 85.308 22C84.6509 22.1493 83.9864 22.224 83.3144 22.224ZM91.6838 22V10.24H94.0134V14.16L93.6102 13.5776C93.8043 12.9205 94.1328 12.3232 94.5958 11.7856C95.0587 11.2331 95.5888 10.8 96.1862 10.4864C96.7835 10.1579 97.4032 9.9936 98.0454 9.9936C98.4187 9.9936 98.7771 10.0309 99.1206 10.1056C99.479 10.1803 99.7552 10.2773 99.9494 10.3968L99.3446 12.8608C99.1056 12.7264 98.8219 12.6219 98.4934 12.5472C98.1798 12.4725 97.8736 12.4352 97.575 12.4352C97.0672 12.4352 96.5968 12.5323 96.1638 12.7264C95.7307 12.9056 95.3499 13.152 95.0214 13.4656C94.7078 13.7792 94.4614 14.1376 94.2822 14.5408C94.103 14.9291 94.0134 15.3397 94.0134 15.7728V22H91.6838ZM105.958 22.224C104.808 22.224 103.785 21.9627 102.889 21.44C101.993 20.9024 101.284 20.1707 100.761 19.2448C100.254 18.3189 99.9998 17.2661 99.9998 16.0864C99.9998 14.9067 100.261 13.8613 100.784 12.9504C101.321 12.0245 102.053 11.3003 102.979 10.7776C103.905 10.2549 104.958 9.9936 106.137 9.9936C106.854 9.9936 107.511 10.0907 108.109 10.2848C108.721 10.464 109.251 10.7179 109.699 11.0464C110.147 11.3749 110.505 11.7408 110.774 12.144C111.043 12.5323 111.192 12.9429 111.222 13.376L110.662 13.2864V10.24H112.969V22H110.662V19.0208L111.155 18.9984C111.095 19.3717 110.916 19.7525 110.617 20.1408C110.334 20.5141 109.945 20.8576 109.453 21.1712C108.975 21.4848 108.437 21.7387 107.84 21.9328C107.242 22.1269 106.615 22.224 105.958 22.224ZM106.541 20.096C107.362 20.096 108.086 19.9243 108.713 19.5808C109.356 19.2373 109.856 18.7669 110.214 18.1696C110.573 17.5573 110.752 16.8629 110.752 16.0864C110.752 15.3397 110.573 14.6677 110.214 14.0704C109.856 13.4731 109.356 13.0027 108.713 12.6592C108.086 12.3008 107.362 12.1216 106.541 12.1216C105.719 12.1216 104.995 12.3008 104.368 12.6592C103.741 13.0027 103.248 13.4731 102.889 14.0704C102.531 14.6677 102.352 15.3397 102.352 16.0864C102.352 16.8629 102.531 17.5573 102.889 18.1696C103.248 18.7669 103.741 19.2373 104.368 19.5808C104.995 19.9243 105.719 20.096 106.541 20.096Z" fill="#1E1E1E"/>
<rect x="1.65344" width="32" height="32" rx="16" fill="#E04F16"/>
<path fill-rule="evenodd" clip-rule="evenodd" d="M28.2784 16C28.2784 21.868 23.5215 26.625 17.6534 26.625C11.7854 26.625 7.02844 21.868 7.02844 16C7.02844 10.132 11.7854 5.375 17.6534 5.375C23.5215 5.375 28.2784 10.132 28.2784 16ZM10.6409 16.1062C10.6409 17.5647 11.1027 18.9857 11.9599 20.1656C12.8172 21.3456 14.026 22.2238 15.413 22.6745C16.8001 23.1252 18.2943 23.1252 19.6813 22.6745C21.0684 22.2238 22.2772 21.3456 23.1345 20.1656L20.8996 18.5419C20.3852 19.2498 19.6599 19.7768 18.8277 20.0472C17.9954 20.3176 17.099 20.3176 16.2667 20.0472C15.4345 19.7768 14.7092 19.2498 14.1948 18.5419C13.6805 17.8339 13.4034 16.9813 13.4034 16.1062H17.5472H24.4534C24.4534 15.1993 24.2748 14.3012 23.9277 13.4633C23.5807 12.6254 23.072 11.8641 22.4307 11.2228C21.7893 10.5815 21.028 10.0728 20.1901 9.7257C19.3522 9.37863 18.4541 9.2 17.5472 9.2C16.6403 9.2 15.7422 9.37863 14.9043 9.7257C14.0664 10.0728 13.305 10.5815 12.6637 11.2228C12.0224 11.8641 11.5137 12.6254 11.1667 13.4633C10.8196 14.3012 10.6409 15.1993 10.6409 16.1062Z" fill="white"/>
<path d="M10.641 16.1063C10.641 17.5647 11.1027 18.9857 11.96 20.1657C12.8172 21.3456 14.026 22.2238 15.4131 22.6745C16.8002 23.1252 18.2943 23.1252 19.6814 22.6745C21.0685 22.2238 22.2773 21.3456 23.1345 20.1657L20.8996 18.5419C20.3853 19.2498 19.66 19.7768 18.8277 20.0472C17.9955 20.3176 17.099 20.3176 16.2668 20.0472C15.4345 19.7768 14.7092 19.2498 14.1949 18.5419C13.6805 17.8339 13.4035 16.9813 13.4035 16.1063H10.641Z" fill="url(#paint0_linear_23_3170)"/>
<defs>
<linearGradient id="paint0_linear_23_3170" x1="10.641" y1="12.2027" x2="10.641" y2="26.0152" gradientUnits="userSpaceOnUse">
<stop stop-color="white"/>
<stop offset="1" stop-color="white" stop-opacity="0"/>
</linearGradient>
</defs>
</svg>
