<svg width="16" height="16" viewBox="0 0 16 16" fill="none" xmlns="http://www.w3.org/2000/svg">
<path d="M4.99998 7.33333H3.06665C2.69328 7.33333 2.50659 7.33333 2.36399 7.406C2.23854 7.46991 2.13656 7.5719 2.07264 7.69734C1.99998 7.83995 1.99998 8.02663 1.99998 8.4V14M11 7.33333H12.9333C13.3067 7.33333 13.4934 7.33333 13.636 7.406C13.7614 7.46991 13.8634 7.5719 13.9273 7.69734C14 7.83995 14 8.02663 14 8.4V14M11 14V4.13333C11 3.3866 11 3.01323 10.8547 2.72801C10.7268 2.47713 10.5229 2.27316 10.272 2.14532C9.98675 2 9.61338 2 8.86665 2H7.13331C6.38658 2 6.01321 2 5.72799 2.14532C5.47711 2.27316 5.27314 2.47713 5.1453 2.72801C4.99998 3.01323 4.99998 3.3866 4.99998 4.13333V14M14.6666 14H1.33331M7.33331 4.66667H8.66665M7.33331 7.33333H8.66665M7.33331 10H8.66665" stroke="#98A2B3" stroke-linecap="round" stroke-linejoin="round"/>
</svg>
