<svg width="24" height="24" viewBox="0 0 24 24" fill="none" xmlns="http://www.w3.org/2000/svg">
<g id="scan-barcode">
<path id="Icon" d="M8 3H7.8C6.11984 3 5.27976 3 4.63803 3.32698C4.07354 3.6146 3.6146 4.07354 3.32698 4.63803C3 5.27976 3 6.11984 3 7.8V8M8 21H7.8C6.11984 21 5.27976 21 4.63803 20.673C4.07354 20.3854 3.6146 19.9265 3.32698 19.362C3 18.7202 3 17.8802 3 16.2V16M21 8V7.8C21 6.11984 21 5.27976 20.673 4.63803C20.3854 4.07354 19.9265 3.6146 19.362 3.32698C18.7202 3 17.8802 3 16.2 3H16M21 16V16.2C21 17.8802 21 18.7202 20.673 19.362C20.3854 19.9265 19.9265 20.3854 19.362 20.673C18.7202 21 17.8802 21 16.2 21H16" stroke="#344054" stroke-width="1.5" stroke-linecap="round" stroke-linejoin="round"/>
<path id="Vector 40" d="M7 16.35V7.65C7 7.29101 7.29101 7 7.65 7C8.00898 7 8.3 7.29101 8.3 7.65V16.35C8.3 16.709 8.00898 17 7.65 17C7.29101 17 7 16.709 7 16.35Z" stroke="#667085" stroke-width="1.5"/>
<path id="Vector 42" d="M13.1 16.5V7.5C13.1 7.22386 13.3239 7 13.6 7C13.8762 7 14.1 7.22386 14.1 7.5V16.5C14.1 16.7761 13.8762 17 13.6 17C13.3239 17 13.1 16.7761 13.1 16.5Z" stroke="#667085" stroke-width="1.5"/>
<path id="Vector 43" d="M16.5001 16.75V7.25C16.5001 7.11193 16.612 7 16.7501 7C16.8881 7 17.0001 7.11193 17.0001 7.25V16.75C17.0001 16.8881 16.8881 17 16.7501 17C16.612 17 16.5001 16.8881 16.5001 16.75Z" stroke="#667085" stroke-width="1.5"/>
<path id="Vector 41" d="M10.7 7V17" stroke="#667085" stroke-width="1.5" stroke-linecap="round"/>
</g>
</svg>
