<svg width="167" height="48" viewBox="0 0 167 48" fill="none" xmlns="http://www.w3.org/2000/svg">
<path d="M64.902 33.3324C62.9075 33.3324 61.1346 32.9557 59.5834 32.2022C58.0321 31.4266 56.8132 30.3739 55.9268 29.0442C55.0625 27.7146 54.6303 26.1855 54.6303 24.4569C54.6303 23.0386 54.8852 21.7643 55.3949 20.6341C55.9046 19.5039 56.6027 18.5288 57.4891 17.7088C58.3977 16.8889 59.4615 16.2573 60.6803 15.814C61.8992 15.3708 63.2067 15.1492 64.6029 15.1492C65.866 15.1492 67.0406 15.3597 68.1265 15.7808C69.2345 16.2019 70.1985 16.7891 71.0185 17.5426C71.8385 18.2961 72.4701 19.1936 72.9133 20.2352C73.3787 21.2546 73.6003 22.3848 73.5781 23.6258L73.5449 25.2214H57.4226L56.6581 22.4956H70.5864L70.0877 22.9278V22.13C69.9991 21.3986 69.6888 20.7449 69.157 20.1687C68.6251 19.5925 67.9603 19.1382 67.1625 18.8058C66.3647 18.4734 65.5115 18.3072 64.6029 18.3072C63.2732 18.3072 62.1097 18.5177 61.1125 18.9388C60.1374 19.3598 59.3728 20.0136 58.8188 20.9C58.2869 21.7643 58.021 22.8724 58.021 24.2242C58.021 25.4431 58.3313 26.4957 58.9518 27.3822C59.5723 28.2686 60.4366 28.9556 61.5446 29.4431C62.6527 29.9307 63.9269 30.1745 65.3674 30.1745C66.6084 30.1745 67.6833 29.9972 68.5919 29.6426C69.5005 29.288 70.3647 28.8005 71.1847 28.18L72.8136 30.6731C72.2374 31.1606 71.5171 31.6149 70.6528 32.036C69.7886 32.4349 68.8578 32.7562 67.8605 33C66.8854 33.2216 65.8993 33.3324 64.902 33.3324ZM77.3222 40.3132V15.5481H80.7794V19.5371L80.2475 19.2379C80.4026 18.5953 80.8237 17.9747 81.5107 17.3764C82.2198 16.7559 83.0841 16.2462 84.1035 15.8473C85.1451 15.4484 86.231 15.2489 87.3612 15.2489C89.1563 15.2489 90.7297 15.6367 92.0815 16.4124C93.4334 17.188 94.4971 18.2518 95.2727 19.6036C96.0484 20.9554 96.4362 22.5067 96.4362 24.2574C96.4362 25.986 96.0484 27.5373 95.2727 28.9113C94.5193 30.2631 93.4555 31.3379 92.0815 32.1357C90.7297 32.9114 89.1895 33.2992 87.4609 33.2992C86.2421 33.2992 85.0897 33.0886 84.0038 32.6676C82.9179 32.2244 82.0093 31.6814 81.278 31.0387C80.5467 30.3961 80.0924 29.7534 79.9151 29.1107L80.7794 28.6453V40.3132H77.3222ZM86.8958 30.1412C88.1147 30.1412 89.1895 29.8864 90.1203 29.3767C91.051 28.8669 91.7824 28.1689 92.3142 27.2824C92.8683 26.396 93.1453 25.3876 93.1453 24.2574C93.1453 23.1272 92.8793 22.13 92.3475 21.2657C91.8156 20.3792 91.0843 19.6812 90.1535 19.1715C89.2227 18.6617 88.1369 18.4069 86.8958 18.4069C85.677 18.4069 84.5911 18.6617 83.6381 19.1715C82.7074 19.659 81.965 20.346 81.4109 21.2324C80.8791 22.1189 80.6131 23.1272 80.6131 24.2574C80.6131 25.3876 80.8791 26.396 81.4109 27.2824C81.965 28.1689 82.7074 28.8669 83.6381 29.3767C84.5911 29.8864 85.677 30.1412 86.8958 30.1412ZM102.294 33V10.6948H105.718V33H102.294ZM97.8731 18.8723V15.5481H110.837V18.8723H97.8731ZM122.452 33.3324C120.457 33.3324 118.684 32.9557 117.133 32.2022C115.582 31.4266 114.363 30.3739 113.476 29.0442C112.612 27.7146 112.18 26.1855 112.18 24.4569C112.18 23.0386 112.435 21.7643 112.945 20.6341C113.454 19.5039 114.152 18.5288 115.039 17.7088C115.947 16.8889 117.011 16.2573 118.23 15.814C119.449 15.3708 120.756 15.1492 122.153 15.1492C123.416 15.1492 124.59 15.3597 125.676 15.7808C126.784 16.2019 127.748 16.7891 128.568 17.5426C129.388 18.2961 130.02 19.1936 130.463 20.2352C130.928 21.2546 131.15 22.3848 131.128 23.6258L131.095 25.2214H114.972L114.208 22.4956H128.136L127.637 22.9278V22.13C127.549 21.3986 127.239 20.7449 126.707 20.1687C126.175 19.5925 125.51 19.1382 124.712 18.8058C123.914 18.4734 123.061 18.3072 122.153 18.3072C120.823 18.3072 119.659 18.5177 118.662 18.9388C117.687 19.3598 116.923 20.0136 116.368 20.9C115.837 21.7643 115.571 22.8724 115.571 24.2242C115.571 25.4431 115.881 26.4957 116.501 27.3822C117.122 28.2686 117.986 28.9556 119.094 29.4431C120.202 29.9307 121.477 30.1745 122.917 30.1745C124.158 30.1745 125.233 29.9972 126.142 29.6426C127.05 29.288 127.914 28.8005 128.734 28.18L130.363 30.6731C129.787 31.1606 129.067 31.6149 128.203 32.036C127.338 32.4349 126.407 32.7562 125.41 33C124.435 33.2216 123.449 33.3324 122.452 33.3324ZM134.872 33V15.5481H138.329V21.3654L137.731 20.5011C138.019 19.526 138.506 18.6396 139.193 17.8418C139.88 17.0218 140.667 16.3791 141.553 15.9138C142.44 15.4262 143.36 15.1824 144.313 15.1824C144.867 15.1824 145.398 15.2378 145.908 15.3487C146.44 15.4595 146.85 15.6035 147.138 15.7808L146.241 19.4374C145.886 19.2379 145.465 19.0828 144.977 18.972C144.512 18.8612 144.058 18.8058 143.614 18.8058C142.861 18.8058 142.163 18.9498 141.52 19.2379C140.878 19.5039 140.312 19.8695 139.825 20.3349C139.36 20.8003 138.994 21.3322 138.728 21.9305C138.462 22.5067 138.329 23.1161 138.329 23.7588V33H134.872ZM156.055 33.3324C154.349 33.3324 152.831 32.9446 151.501 32.169C150.171 31.3712 149.119 30.2853 148.343 28.9113C147.59 27.5373 147.213 25.9749 147.213 24.2242C147.213 22.4735 147.601 20.9222 148.376 19.5704C149.174 18.1964 150.26 17.1215 151.634 16.3459C153.008 15.5703 154.57 15.1824 156.321 15.1824C157.385 15.1824 158.36 15.3265 159.246 15.6146C160.155 15.8805 160.942 16.2573 161.607 16.7448C162.271 17.2324 162.803 17.7753 163.202 18.3736C163.601 18.9498 163.823 19.5593 163.867 20.2019L163.036 20.069V15.5481H166.46V33H163.036V28.5789L163.767 28.5456C163.679 29.0996 163.413 29.6647 162.969 30.2409C162.548 30.795 161.972 31.3047 161.241 31.7701C160.532 32.2354 159.734 32.6122 158.847 32.9003C157.961 33.1884 157.03 33.3324 156.055 33.3324ZM156.919 30.1745C158.138 30.1745 159.213 29.9196 160.144 29.4099C161.097 28.9002 161.839 28.2021 162.371 27.3157C162.903 26.4071 163.169 25.3766 163.169 24.2242C163.169 23.1161 162.903 22.1189 162.371 21.2324C161.839 20.346 161.097 19.6479 160.144 19.1382C159.213 18.6063 158.138 18.3404 156.919 18.3404C155.701 18.3404 154.626 18.6063 153.695 19.1382C152.764 19.6479 152.033 20.346 151.501 21.2324C150.969 22.1189 150.703 23.1161 150.703 24.2242C150.703 25.3766 150.969 26.4071 151.501 27.3157C152.033 28.2021 152.764 28.9002 153.695 29.4099C154.626 29.9196 155.701 30.1745 156.919 30.1745Z" fill="white"/>
<path fill-rule="evenodd" clip-rule="evenodd" d="M47.4881 23.7441C47.4881 36.8576 36.8576 47.4882 23.7441 47.4882C10.6306 47.4882 0 36.8576 0 23.7441C0 10.6306 10.6306 0 23.7441 0C36.8576 0 47.4881 10.6306 47.4881 23.7441ZM8.07296 23.9815C8.07296 27.2408 9.10478 30.4164 11.0205 33.0532C12.9363 35.69 15.6376 37.6526 18.7374 38.6598C21.8371 39.667 25.1761 39.667 28.2759 38.6598C31.3756 37.6526 34.0769 35.69 35.9927 33.0532L30.9983 29.4245C29.8488 31.0066 28.228 32.1842 26.3682 32.7885C24.5083 33.3928 22.5049 33.3928 20.6451 32.7885C18.7852 32.1842 17.1644 31.0066 16.015 29.4245C14.8655 27.8424 14.2464 25.9371 14.2464 23.9815L23.5066 23.9815H38.9403C38.9403 21.9547 38.5411 19.9478 37.7654 18.0753C36.9898 16.2028 35.853 14.5014 34.4198 13.0683C32.9867 11.6351 31.2853 10.4983 29.4128 9.72268C27.5403 8.94707 25.5334 8.54787 23.5066 8.54787C21.4798 8.54787 19.4729 8.94707 17.6004 9.72268C15.7279 10.4983 14.0265 11.6351 12.5934 13.0683C11.1602 14.5014 10.0234 16.2028 9.24778 18.0753C8.47217 19.9478 8.07296 21.9547 8.07296 23.9815Z" fill="white"/>
<path d="M8.07294 23.9815C8.07294 27.2408 9.10475 30.4164 11.0205 33.0532C12.9363 35.69 15.6376 37.6526 18.7373 38.6598C21.8371 39.667 25.1761 39.667 28.2758 38.6598C31.3756 37.6526 34.0769 35.69 35.9927 33.0532L30.9982 29.4245C29.8488 31.0066 28.228 32.1842 26.3681 32.7885C24.5083 33.3928 22.5049 33.3928 20.645 32.7885C18.7852 32.1842 17.1644 31.0066 16.0149 29.4245C14.8655 27.8424 14.2464 25.9371 14.2464 23.9815H8.07294Z" fill="url(#paint0_linear_6_17570)"/>
<path d="M105.818 40.3533V41.2437H102.132V40.3533H105.818ZM103.236 47.1921V39.4093C103.236 39.0175 103.328 38.691 103.512 38.4298C103.696 38.1686 103.935 37.9727 104.229 37.8421C104.523 37.7115 104.833 37.6462 105.159 37.6462C105.418 37.6462 105.628 37.667 105.792 37.7085C105.955 37.7501 106.077 37.7887 106.157 37.8243L105.854 38.7326C105.8 38.7148 105.726 38.6925 105.631 38.6658C105.539 38.6391 105.418 38.6257 105.266 38.6257C104.919 38.6257 104.668 38.7133 104.514 38.8884C104.362 39.0635 104.287 39.3203 104.287 39.6587V47.1921H103.236ZM107.291 47.1921V40.3533H108.342V47.1921H107.291ZM107.825 39.2134C107.62 39.2134 107.444 39.1437 107.295 39.0042C107.15 38.8647 107.077 38.697 107.077 38.5011C107.077 38.3052 107.15 38.1375 107.295 37.9979C107.444 37.8584 107.62 37.7887 107.825 37.7887C108.03 37.7887 108.205 37.8584 108.351 37.9979C108.499 38.1375 108.573 38.3052 108.573 38.5011C108.573 38.697 108.499 38.8647 108.351 39.0042C108.205 39.1437 108.03 39.2134 107.825 39.2134ZM111.05 40.3533L112.688 43.1493L114.327 40.3533H115.538L113.329 43.7727L115.538 47.1921H114.327L112.688 44.5385L111.05 47.1921H109.839L112.012 43.7727L109.839 40.3533H111.05ZM119.623 47.3346C118.964 47.3346 118.396 47.1891 117.918 46.8983C117.443 46.6044 117.076 46.1948 116.818 45.6694C116.563 45.141 116.435 44.5266 116.435 43.8261C116.435 43.1256 116.563 42.5082 116.818 41.9739C117.076 41.4367 117.435 41.0181 117.895 40.7183C118.358 40.4156 118.899 40.2642 119.516 40.2642C119.872 40.2642 120.224 40.3236 120.571 40.4423C120.919 40.561 121.235 40.754 121.52 41.0211C121.805 41.2853 122.032 41.6355 122.201 42.0719C122.37 42.5082 122.455 43.0455 122.455 43.6836V44.1289H117.183V43.2206H121.386C121.386 42.8347 121.309 42.4904 121.155 42.1876C121.003 41.8849 120.786 41.6459 120.504 41.4708C120.225 41.2957 119.896 41.2081 119.516 41.2081C119.098 41.2081 118.735 41.312 118.43 41.5198C118.127 41.7246 117.894 41.9917 117.731 42.3212C117.567 42.6507 117.486 43.0039 117.486 43.3809V43.9864C117.486 44.5029 117.575 44.9407 117.753 45.2998C117.934 45.656 118.185 45.9276 118.505 46.1146C118.826 46.2987 119.198 46.3907 119.623 46.3907C119.899 46.3907 120.148 46.3521 120.371 46.2749C120.596 46.1948 120.791 46.076 120.954 45.9187C121.117 45.7584 121.244 45.5596 121.333 45.3221L122.348 45.6071C122.241 45.9514 122.061 46.2541 121.809 46.5153C121.557 46.7736 121.245 46.9754 120.874 47.1209C120.503 47.2633 120.086 47.3346 119.623 47.3346ZM126.635 47.3346C126.065 47.3346 125.562 47.1906 125.126 46.9027C124.69 46.6118 124.348 46.2022 124.102 45.6738C123.856 45.1425 123.732 44.5147 123.732 43.7905C123.732 43.0722 123.856 42.4488 124.102 41.9205C124.348 41.3921 124.691 40.984 125.13 40.6961C125.57 40.4082 126.077 40.2642 126.653 40.2642C127.098 40.2642 127.45 40.3384 127.708 40.4868C127.97 40.6323 128.169 40.7985 128.305 40.9855C128.445 41.1695 128.553 41.3209 128.63 41.4396H128.719V38.0736H129.77V47.1921H128.755V46.1413H128.63C128.553 46.266 128.443 46.4233 128.301 46.6133C128.158 46.8003 127.955 46.968 127.691 47.1164C127.426 47.2619 127.075 47.3346 126.635 47.3346ZM126.778 46.3907C127.199 46.3907 127.556 46.2809 127.846 46.0612C128.137 45.8386 128.358 45.5314 128.51 45.1396C128.661 44.7448 128.737 44.2892 128.737 43.7727C128.737 43.2621 128.663 42.8154 128.514 42.4325C128.366 42.0466 128.146 41.7468 127.855 41.5331C127.564 41.3165 127.205 41.2081 126.778 41.2081C126.333 41.2081 125.962 41.3224 125.665 41.5509C125.371 41.7765 125.15 42.0837 125.001 42.4726C124.856 42.8585 124.783 43.2918 124.783 43.7727C124.783 44.2595 124.857 44.7017 125.006 45.0995C125.157 45.4943 125.38 45.8089 125.674 46.0434C125.971 46.2749 126.339 46.3907 126.778 46.3907ZM137.949 47.3346C137.379 47.3346 136.876 47.1906 136.44 46.9027C136.003 46.6118 135.662 46.2022 135.415 45.6738C135.169 45.1425 135.046 44.5147 135.046 43.7905C135.046 43.0722 135.169 42.4488 135.415 41.9205C135.662 41.3921 136.005 40.984 136.444 40.6961C136.883 40.4082 137.391 40.2642 137.967 40.2642C138.412 40.2642 138.764 40.3384 139.022 40.4868C139.283 40.6323 139.482 40.7985 139.619 40.9855C139.758 41.1695 139.866 41.3209 139.944 41.4396H140.033V40.3533H141.083V47.1921H140.068V46.1413H139.944C139.866 46.266 139.757 46.4233 139.614 46.6133C139.472 46.8003 139.268 46.968 139.004 47.1164C138.74 47.2619 138.388 47.3346 137.949 47.3346ZM138.091 46.3907C138.513 46.3907 138.869 46.2809 139.16 46.0612C139.451 45.8386 139.672 45.5314 139.823 45.1396C139.975 44.7448 140.05 44.2892 140.05 43.7727C140.05 43.2621 139.976 42.8154 139.828 42.4325C139.679 42.0466 139.46 41.7468 139.169 41.5331C138.878 41.3165 138.519 41.2081 138.091 41.2081C137.646 41.2081 137.275 41.3224 136.978 41.5509C136.684 41.7765 136.463 42.0837 136.315 42.4726C136.169 42.8585 136.097 43.2918 136.097 43.7727C136.097 44.2595 136.171 44.7017 136.319 45.0995C136.471 45.4943 136.693 45.8089 136.987 46.0434C137.284 46.2749 137.652 46.3907 138.091 46.3907ZM147.998 41.8849L147.054 42.152C146.995 41.9947 146.907 41.8418 146.791 41.6934C146.679 41.542 146.524 41.4174 146.328 41.3194C146.132 41.2215 145.882 41.1725 145.576 41.1725C145.157 41.1725 144.809 41.269 144.53 41.4619C144.253 41.6519 144.115 41.8938 144.115 42.1876C144.115 42.4488 144.21 42.6551 144.4 42.8065C144.59 42.9579 144.887 43.084 145.291 43.185L146.306 43.4343C146.917 43.5827 147.373 43.8098 147.673 44.1155C147.973 44.4183 148.123 44.8086 148.123 45.2865C148.123 45.6783 148.01 46.0286 147.784 46.3373C147.562 46.6459 147.25 46.8893 146.849 47.0674C146.448 47.2455 145.982 47.3346 145.451 47.3346C144.754 47.3346 144.176 47.1832 143.719 46.8804C143.262 46.5777 142.973 46.1354 142.851 45.5536L143.848 45.3043C143.943 45.6724 144.123 45.9484 144.387 46.1324C144.654 46.3165 145.003 46.4085 145.433 46.4085C145.923 46.4085 146.312 46.3046 146.6 46.0968C146.891 45.8861 147.036 45.6338 147.036 45.3399C147.036 45.1025 146.953 44.9036 146.787 44.7433C146.621 44.58 146.365 44.4583 146.021 44.3782L144.881 44.1111C144.255 43.9626 143.795 43.7326 143.501 43.4209C143.21 43.1063 143.065 42.713 143.065 42.2411C143.065 41.8552 143.173 41.5138 143.39 41.217C143.609 40.9202 143.908 40.6872 144.285 40.518C144.665 40.3488 145.095 40.2642 145.576 40.2642C146.253 40.2642 146.784 40.4126 147.17 40.7094C147.559 41.0063 147.835 41.3981 147.998 41.8849ZM154.548 41.8849L153.605 42.152C153.545 41.9947 153.458 41.8418 153.342 41.6934C153.229 41.542 153.075 41.4174 152.879 41.3194C152.683 41.2215 152.432 41.1725 152.126 41.1725C151.708 41.1725 151.359 41.269 151.08 41.4619C150.804 41.6519 150.666 41.8938 150.666 42.1876C150.666 42.4488 150.761 42.6551 150.951 42.8065C151.141 42.9579 151.438 43.084 151.841 43.185L152.857 43.4343C153.468 43.5827 153.924 43.8098 154.223 44.1155C154.523 44.4183 154.673 44.8086 154.673 45.2865C154.673 45.6783 154.56 46.0286 154.335 46.3373C154.112 46.6459 153.8 46.8893 153.4 47.0674C152.999 47.2455 152.533 47.3346 152.002 47.3346C151.304 47.3346 150.727 47.1832 150.27 46.8804C149.813 46.5777 149.523 46.1354 149.402 45.5536L150.399 45.3043C150.494 45.6724 150.673 45.9484 150.938 46.1324C151.205 46.3165 151.554 46.4085 151.984 46.4085C152.474 46.4085 152.863 46.3046 153.15 46.0968C153.441 45.8861 153.587 45.6338 153.587 45.3399C153.587 45.1025 153.504 44.9036 153.337 44.7433C153.171 44.58 152.916 44.4583 152.572 44.3782L151.432 44.1111C150.806 43.9626 150.345 43.7326 150.052 43.4209C149.761 43.1063 149.615 42.713 149.615 42.2411C149.615 41.8552 149.724 41.5138 149.94 41.217C150.16 40.9202 150.458 40.6872 150.835 40.518C151.215 40.3488 151.646 40.2642 152.126 40.2642C152.803 40.2642 153.334 40.4126 153.72 40.7094C154.109 41.0063 154.385 41.3981 154.548 41.8849ZM159.122 47.3346C158.463 47.3346 157.895 47.1891 157.417 46.8983C156.942 46.6044 156.575 46.1948 156.317 45.6694C156.062 45.141 155.934 44.5266 155.934 43.8261C155.934 43.1256 156.062 42.5082 156.317 41.9739C156.575 41.4367 156.935 41.0181 157.395 40.7183C157.858 40.4156 158.398 40.2642 159.015 40.2642C159.372 40.2642 159.723 40.3236 160.071 40.4423C160.418 40.561 160.734 40.754 161.019 41.0211C161.304 41.2853 161.531 41.6355 161.7 42.0719C161.869 42.5082 161.954 43.0455 161.954 43.6836V44.1289H156.682V43.2206H160.885C160.885 42.8347 160.808 42.4904 160.654 42.1876C160.502 41.8849 160.286 41.6459 160.004 41.4708C159.725 41.2957 159.395 41.2081 159.015 41.2081C158.597 41.2081 158.235 41.312 157.929 41.5198C157.626 41.7246 157.393 41.9917 157.23 42.3212C157.067 42.6507 156.985 43.0039 156.985 43.3809V43.9864C156.985 44.5029 157.074 44.9407 157.252 45.2998C157.433 45.656 157.684 45.9276 158.005 46.1146C158.325 46.2987 158.698 46.3907 159.122 46.3907C159.398 46.3907 159.648 46.3521 159.87 46.2749C160.096 46.1948 160.29 46.076 160.453 45.9187C160.617 45.7584 160.743 45.5596 160.832 45.3221L161.847 45.6071C161.74 45.9514 161.561 46.2541 161.308 46.5153C161.056 46.7736 160.744 46.9754 160.373 47.1209C160.002 47.2633 159.585 47.3346 159.122 47.3346ZM166.527 40.3533V41.2437H162.982V40.3533H166.527ZM164.015 38.7148H165.066V45.2331C165.066 45.5299 165.109 45.7525 165.195 45.9009C165.284 46.0464 165.397 46.1443 165.534 46.1948C165.673 46.2423 165.82 46.266 165.974 46.266C166.09 46.266 166.185 46.2601 166.259 46.2482C166.334 46.2334 166.393 46.2215 166.437 46.2126L166.651 47.1565C166.58 47.1832 166.48 47.2099 166.353 47.2366C166.225 47.2663 166.063 47.2812 165.868 47.2812C165.571 47.2812 165.28 47.2173 164.995 47.0897C164.713 46.9621 164.478 46.7676 164.291 46.5064C164.107 46.2452 164.015 45.9158 164.015 45.518V38.7148Z" fill="white"/>
<defs>
<linearGradient id="paint0_linear_6_17570" x1="8.07294" y1="8.54786" x2="8.07294" y2="39.4152" gradientUnits="userSpaceOnUse">
<stop stop-color="white"/>
<stop offset="1" stop-color="white" stop-opacity="0"/>
</linearGradient>
</defs>
</svg>
