<svg width="32" height="32" viewBox="0 0 32 32" fill="none" xmlns="http://www.w3.org/2000/svg">
<rect width="32" height="32" rx="16" fill="#E04F16"/>
<path fill-rule="evenodd" clip-rule="evenodd" d="M26.625 16C26.625 21.868 21.868 26.625 16 26.625C10.132 26.625 5.375 21.868 5.375 16C5.375 10.132 10.132 5.375 16 5.375C21.868 5.375 26.625 10.132 26.625 16ZM8.9875 16.1062C8.9875 17.5647 9.44922 18.9857 10.3065 20.1656C11.1637 21.3456 12.3725 22.2238 13.7596 22.6745C15.1467 23.1252 16.6408 23.1252 18.0279 22.6745C19.415 22.2238 20.6238 21.3456 21.481 20.1656L19.2461 18.5419C18.7318 19.2498 18.0065 19.7768 17.1742 20.0472C16.342 20.3176 15.4455 20.3176 14.6133 20.0472C13.781 19.7768 13.0557 19.2498 12.5414 18.5419C12.027 17.8339 11.75 16.9813 11.75 16.1062L15.8938 16.1063H22.8C22.8 15.1993 22.6214 14.3012 22.2743 13.4633C21.9272 12.6254 21.4185 11.8641 20.7772 11.2228C20.1359 10.5815 19.3746 10.0728 18.5367 9.72571C17.6988 9.37864 16.8007 9.2 15.8938 9.2C14.9868 9.2 14.0887 9.37864 13.2508 9.72571C12.4129 10.0728 11.6516 10.5815 11.0103 11.2228C10.369 11.8641 9.86028 12.6254 9.51321 13.4633C9.16614 14.3012 8.9875 15.1993 8.9875 16.1062Z" fill="white"/>
<path d="M8.98755 16.1063C8.98755 17.5647 9.44927 18.9857 10.3065 20.1657C11.1638 21.3456 12.3726 22.2238 13.7597 22.6745C15.1467 23.1252 16.6409 23.1252 18.0279 22.6745C19.415 22.2238 20.6238 21.3456 21.4811 20.1657L19.2462 18.5419C18.7318 19.2498 18.0065 19.7768 17.1743 20.0472C16.342 20.3176 15.4456 20.3176 14.6133 20.0472C13.7811 19.7768 13.0558 19.2498 12.5414 18.5419C12.0271 17.8339 11.75 16.9813 11.75 16.1063H8.98755Z" fill="url(#paint0_linear_6_25245)"/>
<defs>
<linearGradient id="paint0_linear_6_25245" x1="8.98755" y1="12.2027" x2="8.98755" y2="26.0152" gradientUnits="userSpaceOnUse">
<stop stop-color="white"/>
<stop offset="1" stop-color="white" stop-opacity="0"/>
</linearGradient>
</defs>
</svg>
