<svg width="20" height="20" viewBox="0 0 20 20" fill="none" xmlns="http://www.w3.org/2000/svg">
<g id="file-02">
<path id="Icon" d="M11.6667 9.16669H6.66668M8.33334 12.5H6.66668M13.3333 5.83335H6.66668M16.6667 5.66669V14.3334C16.6667 15.7335 16.6667 16.4336 16.3942 16.9683C16.1545 17.4387 15.7721 17.8212 15.3017 18.0609C14.7669 18.3334 14.0668 18.3334 12.6667 18.3334H7.33334C5.93321 18.3334 5.23315 18.3334 4.69837 18.0609C4.22796 17.8212 3.84551 17.4387 3.60583 16.9683C3.33334 16.4336 3.33334 15.7335 3.33334 14.3334V5.66669C3.33334 4.26656 3.33334 3.56649 3.60583 3.03171C3.84551 2.56131 4.22796 2.17885 4.69837 1.93917C5.23315 1.66669 5.93321 1.66669 7.33334 1.66669H12.6667C14.0668 1.66669 14.7669 1.66669 15.3017 1.93917C15.7721 2.17885 16.1545 2.56131 16.3942 3.03171C16.6667 3.56649 16.6667 4.26656 16.6667 5.66669Z" stroke="#667085" stroke-width="1.66667" stroke-linecap="round" stroke-linejoin="round"/>
</g>
</svg>
