<svg width="40" height="40" viewBox="0 0 40 40" fill="none" xmlns="http://www.w3.org/2000/svg">
<rect width="40" height="40" rx="8" fill="#17B26A" fill-opacity="0.1"/>
<rect x="0.5" y="0.5" width="39" height="39" rx="7.5" stroke="#17B26A" stroke-opacity="0.8"/>
<path fill-rule="evenodd" clip-rule="evenodd" d="M16.8 9.25H16.7679H16.7679C15.9551 9.24999 15.2994 9.24999 14.7685 9.29336C14.2219 9.33803 13.7418 9.43239 13.2975 9.65873C12.5919 10.0183 12.0183 10.5919 11.6587 11.2975C11.4324 11.7418 11.338 12.2219 11.2934 12.7685C11.25 13.2994 11.25 13.9551 11.25 14.7679V14.7679V14.8V25.2V25.2321V25.2321C11.25 26.045 11.25 26.7006 11.2934 27.2315C11.338 27.7781 11.4324 28.2582 11.6587 28.7025C12.0183 29.4081 12.5919 29.9817 13.2975 30.3413C13.7418 30.5676 14.2219 30.662 14.7685 30.7066C15.2994 30.75 15.955 30.75 16.7679 30.75H16.8H21C21.4142 30.75 21.75 30.4142 21.75 30C21.75 29.5858 21.4142 29.25 21 29.25H16.8C15.9475 29.25 15.3533 29.2494 14.8907 29.2116C14.4368 29.1745 14.176 29.1054 13.9785 29.0048C13.5552 28.789 13.211 28.4448 12.9952 28.0215C12.8946 27.824 12.8255 27.5632 12.7884 27.1093C12.7506 26.6467 12.75 26.0525 12.75 25.2V14.8C12.75 13.9475 12.7506 13.3533 12.7884 12.8907C12.8255 12.4368 12.8946 12.176 12.9952 11.9785C13.211 11.5552 13.5552 11.211 13.9785 10.9952C14.176 10.8946 14.4368 10.8255 14.8907 10.7884C15.3533 10.7506 15.9475 10.75 16.8 10.75H23.2C24.0525 10.75 24.6467 10.7506 25.1093 10.7884C25.5632 10.8255 25.824 10.8946 26.0215 10.9952C26.4448 11.211 26.7891 11.5552 27.0048 11.9785C27.1054 12.176 27.1745 12.4368 27.2116 12.8907C27.2494 13.3533 27.25 13.9475 27.25 14.8V19.5C27.25 19.9142 27.5858 20.25 28 20.25C28.4142 20.25 28.75 19.9142 28.75 19.5V14.8V14.7679C28.75 13.955 28.75 13.2994 28.7066 12.7685C28.662 12.2219 28.5676 11.7418 28.3413 11.2975C27.9818 10.5919 27.4081 10.0183 26.7025 9.65873C26.2582 9.43239 25.7781 9.33803 25.2315 9.29336C24.7006 9.24999 24.045 9.24999 23.2321 9.25H23.2321H23.2H16.8ZM16 14.25C15.5858 14.25 15.25 14.5858 15.25 15C15.25 15.4142 15.5858 15.75 16 15.75H24C24.4142 15.75 24.75 15.4142 24.75 15C24.75 14.5858 24.4142 14.25 24 14.25H16ZM16 18.25C15.5858 18.25 15.25 18.5858 15.25 19C15.25 19.4142 15.5858 19.75 16 19.75H22.5C22.9142 19.75 23.25 19.4142 23.25 19C23.25 18.5858 22.9142 18.25 22.5 18.25H16ZM16 22.25C15.5858 22.25 15.25 22.5858 15.25 23C15.25 23.4142 15.5858 23.75 16 23.75H19.5C19.9142 23.75 20.25 23.4142 20.25 23C20.25 22.5858 19.9142 22.25 19.5 22.25H16ZM29.5386 23.522C29.8268 23.2245 29.8194 22.7497 29.522 22.4614C29.2245 22.1732 28.7497 22.1806 28.4614 22.478L24.1538 26.9224L22.5386 25.2558C22.2503 24.9584 21.7755 24.9509 21.478 25.2392C21.1806 25.5275 21.1732 26.0023 21.4614 26.2998L23.6153 28.522C23.7566 28.6677 23.9509 28.75 24.1538 28.75C24.3568 28.75 24.5511 28.6677 24.6924 28.522L29.5386 23.522Z" fill="#17B26A"/>
</svg>
