<svg width="20" height="20" viewBox="0 0 20 20" fill="none" xmlns="http://www.w3.org/2000/svg">
<g id="search-barcod" clip-path="url(#clip0_200_1530)">
<path id="Vector" d="M5.74996 1.66663C5.74996 1.25241 5.41417 0.916626 4.99996 0.916626C4.58575 0.916626 4.24996 1.25241 4.24996 1.66663H5.74996ZM4.24996 12.5C4.24996 12.9142 4.58575 13.25 4.99996 13.25C5.41417 13.25 5.74996 12.9142 5.74996 12.5H4.24996ZM11.5833 1.66663C11.5833 1.25241 11.2475 0.916626 10.8333 0.916626C10.4191 0.916626 10.0833 1.25241 10.0833 1.66663H11.5833ZM10.0833 5.83329C10.0833 6.24751 10.4191 6.58329 10.8333 6.58329C11.2475 6.58329 11.5833 6.24751 11.5833 5.83329H10.0833ZM14.0833 1.66663C14.0833 1.25241 13.7475 0.916626 13.3333 0.916626C12.9191 0.916626 12.5833 1.25241 12.5833 1.66663H14.0833ZM12.5833 6.66663C12.5833 7.08084 12.9191 7.41663 13.3333 7.41663C13.7475 7.41663 14.0833 7.08084 14.0833 6.66663H12.5833ZM17.803 18.8636C18.0958 19.1565 18.5707 19.1565 18.8636 18.8636C19.1565 18.5707 19.1565 18.0959 18.8636 17.803L17.803 18.8636ZM14.697 13.6363C14.4041 13.3434 13.9293 13.3434 13.6364 13.6363C13.3435 13.9292 13.3435 14.4041 13.6364 14.697L14.697 13.6363ZM0.916626 2.08329V12.0833H2.41663V2.08329H0.916626ZM3.24996 12.0833V2.08329H1.74996V12.0833H3.24996ZM3.24996 2.08329C3.24996 1.43896 2.72763 0.916626 2.08329 0.916626V2.41663C1.8992 2.41663 1.74996 2.26739 1.74996 2.08329H3.24996ZM2.08329 13.25C2.72763 13.25 3.24996 12.7276 3.24996 12.0833H1.74996C1.74996 11.8992 1.8992 11.75 2.08329 11.75V13.25ZM0.916626 12.0833C0.916626 12.7276 1.43896 13.25 2.08329 13.25V11.75C2.26739 11.75 2.41663 11.8992 2.41663 12.0833H0.916626ZM2.41663 2.08329C2.41663 2.26739 2.26739 2.41663 2.08329 2.41663V0.916626C1.43896 0.916626 0.916626 1.43896 0.916626 2.08329H2.41663ZM6.74996 2.08329V6.24996H8.24996V2.08329H6.74996ZM9.08329 6.24996V2.08329H7.58329V6.24996H9.08329ZM9.08329 2.08329C9.08329 1.43896 8.56096 0.916626 7.91663 0.916626V2.41663C7.73253 2.41663 7.58329 2.26739 7.58329 2.08329H9.08329ZM7.91663 7.41663C8.56096 7.41663 9.08329 6.89429 9.08329 6.24996H7.58329C7.58329 6.06586 7.73253 5.91663 7.91663 5.91663V7.41663ZM6.74996 6.24996C6.74996 6.89429 7.27229 7.41663 7.91663 7.41663V5.91663C8.10072 5.91663 8.24996 6.06586 8.24996 6.24996H6.74996ZM8.24996 2.08329C8.24996 2.26739 8.10072 2.41663 7.91663 2.41663V0.916626C7.27229 0.916626 6.74996 1.43896 6.74996 2.08329H8.24996ZM4.24996 1.66663V12.5H5.74996V1.66663H4.24996ZM10.0833 1.66663V5.83329H11.5833V1.66663H10.0833ZM12.5833 1.66663V6.66663H14.0833V1.66663H12.5833ZM18.8636 17.803L14.697 13.6363L13.6364 14.697L17.803 18.8636L18.8636 17.803ZM14.8055 10.6944C14.8055 12.9649 12.9649 14.8055 10.6944 14.8055V16.3055C13.7933 16.3055 16.3055 13.7933 16.3055 10.6944H14.8055ZM10.6944 14.8055C8.4239 14.8055 6.58329 12.9649 6.58329 10.6944H5.08329C5.08329 13.7933 7.59547 16.3055 10.6944 16.3055V14.8055ZM6.58329 10.6944C6.58329 8.4239 8.4239 6.58329 10.6944 6.58329V5.08329C7.59547 5.08329 5.08329 7.59547 5.08329 10.6944H6.58329ZM10.6944 6.58329C12.9649 6.58329 14.8055 8.4239 14.8055 10.6944H16.3055C16.3055 7.59547 13.7933 5.08329 10.6944 5.08329V6.58329Z" fill="#667085"/>
</g>
<defs>
<clipPath id="clip0_200_1530">
<rect width="20" height="20" fill="white"/>
</clipPath>
</defs>
</svg>
