<svg width="67" height="66" viewBox="0 0 67 66" fill="none" xmlns="http://www.w3.org/2000/svg">
<rect x="5.5" y="5" width="56" height="56" rx="28" fill="#E0F2FE"/>
<rect x="5.5" y="5" width="56" height="56" rx="28" stroke="#F0F9FF" stroke-width="10"/>
<path d="M43.4166 28.3333V37.9C43.4166 39.8602 43.4166 40.8403 43.0352 41.589C42.6996 42.2475 42.1642 42.783 41.5056 43.1185C40.7569 43.5 39.7768 43.5 37.8166 43.5H29.1833C27.2231 43.5 26.243 43.5 25.4943 43.1185C24.8358 42.783 24.3003 42.2475 23.9648 41.589C23.5833 40.8403 23.5833 39.8602 23.5833 37.9V28.3333M23.7 22.5H43.3C43.9534 22.5 44.2801 22.5 44.5296 22.6272C44.7492 22.739 44.9276 22.9175 45.0395 23.137C45.1666 23.3866 45.1666 23.7133 45.1666 24.3667V26.4667C45.1666 27.1201 45.1666 27.4468 45.0395 27.6963C44.9276 27.9158 44.7492 28.0943 44.5296 28.2062C44.2801 28.3333 43.9534 28.3333 43.3 28.3333H23.7C23.0466 28.3333 22.7199 28.3333 22.4703 28.2062C22.2508 28.0943 22.0723 27.9158 21.9605 27.6963C21.8333 27.4468 21.8333 27.1201 21.8333 26.4667V24.3667C21.8333 23.7133 21.8333 23.3866 21.9605 23.137C22.0723 22.9175 22.2508 22.739 22.4703 22.6272C22.7199 22.5 23.0466 22.5 23.7 22.5ZM30.7 32.4167H36.3C36.9534 32.4167 37.2801 32.4167 37.5296 32.5438C37.7492 32.6557 37.9276 32.8342 38.0395 33.0537C38.1666 33.3032 38.1666 33.6299 38.1666 34.2833V35.2167C38.1666 35.8701 38.1666 36.1968 38.0395 36.4463C37.9276 36.6658 37.7492 36.8443 37.5296 36.9562C37.2801 37.0833 36.9534 37.0833 36.3 37.0833H30.7C30.0466 37.0833 29.7199 37.0833 29.4703 36.9562C29.2508 36.8443 29.0723 36.6658 28.9605 36.4463C28.8333 36.1968 28.8333 35.8701 28.8333 35.2167V34.2833C28.8333 33.6299 28.8333 33.3032 28.9605 33.0537C29.0723 32.8342 29.2508 32.6557 29.4703 32.5438C29.7199 32.4167 30.0466 32.4167 30.7 32.4167Z" stroke="#0086C9" stroke-width="1.66667" stroke-linecap="round" stroke-linejoin="round"/>
</svg>
