<svg width="20" height="20" viewBox="0 0 20 20" fill="none" xmlns="http://www.w3.org/2000/svg">
<g id="TR" clip-path="url(#clip0_575_10489)">
<path id="Vector" d="M10 20C15.5228 20 20 15.5228 20 10C20 4.47715 15.5228 0 10 0C4.47715 0 0 4.47715 0 10C0 15.5228 4.47715 20 10 20Z" fill="#D80027"/>
<g id="Group">
<path id="Vector_2" d="M9.59043 8.1709L10.4109 9.30156L11.7397 8.8707L10.9179 10.0004L11.7383 11.131L10.41 10.6985L9.58824 11.8282L9.5891 10.4313L8.26074 9.99879L9.58957 9.56793L9.59043 8.1709Z" fill="#F0F0F0"/>
<path id="Vector_3" d="M7.35133 12.8255C5.79055 12.8255 4.52523 11.5602 4.52523 9.9994C4.52523 8.43862 5.79055 7.17331 7.35133 7.17331C7.83797 7.17331 8.29586 7.29639 8.69563 7.51299C8.06848 6.89963 7.21078 6.52112 6.26438 6.52112C4.34336 6.52112 2.78613 8.07838 2.78613 9.99936C2.78613 11.9203 4.3434 13.4776 6.26438 13.4776C7.21086 13.4776 8.06852 13.099 8.69563 12.4857C8.29586 12.7024 7.83797 12.8255 7.35133 12.8255Z" fill="#F0F0F0"/>
</g>
</g>
<defs>
<clipPath id="clip0_575_10489">
<rect width="20" height="20" fill="white"/>
</clipPath>
</defs>
</svg>
